# xmcd CD database file
#
# Track frame offsets:
#	150
#	7211
#	25608
#	45080
#	66923
#	87207
#	105301
#	125328
#	142832
#	166050
#	185627
#	191752
#	226993
#	256070
#
# Disc length: 3564 seconds
#
# Revision: 0
# Processed by: cddbd v1.5.1PL0 Copyright (c) Steve Scherf et al.
# Submitted via: CDex 1.51
#
DISCID=a70dea0e
DTITLE=The Groovemasters - Play On
DYEAR=2003
DGENRE=Jazz
TTITLE0=The Groovemasters - Play On - 01 - Intro (Spoken)
TTITLE1=The Groovemasters - Play On - 02 - Show Me The Way
TTITLE2=The Groovemasters - Play On - 03 - Fun!
TTITLE3=The Groovemasters - Play On - 04 - Indian Summer
TTITLE4=The Groovemasters - Play On - 05 - Why Won't You Let Me Love You
TTITLE5=The Groovemasters - Play On - 06 - Tropical Nights
TTITLE6=The Groovemasters - Play On - 07 - A.N.N.I.E.
TTITLE7=The Groovemasters - Play On - 08 - Feelin So Good
TTITLE8=The Groovemasters - Play On - 09 - U Lied
TTITLE9=The Groovemasters - Play On - 10 - Flight Time
TTITLE10=The Groovemasters - Play On - 11 - Song For My Mentor (Archie Jenkins)
TTITLE11=The Groovemasters - Play On - 12 - You Should Be With Me - 13 - Groovemasters Rule
TTITLE12=The Groovemasters - Play On - 14 - Groovemasters Rule
TTITLE13=The Groovemasters - Play On - 15 - Play On
EXTD=YEAR: 2003
EXTT0=
EXTT1=
EXTT2=
EXTT3=
EXTT4=
EXTT5=
EXTT6=
EXTT7=
EXTT8=
EXTT9=
EXTT10=
EXTT11=
EXTT12=
EXTT13=
PLAYORDER=
